<svg width="48" height="48" viewBox="0 0 48 48" fill="none" xmlns="http://www.w3.org/2000/svg">
<g clip-path="url(#clip0_823_664059)">
<rect width="48" height="48" rx="24" fill="white"/>
<path fill-rule="evenodd" clip-rule="evenodd" d="M24 0C10.7452 0 0 10.7452 0 24C0 37.2548 10.7452 48 24 48C37.2548 48 48 37.2548 48 24C48 10.7452 37.2548 0 24 0ZM36.0171 17.8702V31.8773C36.0164 32.4025 35.8075 32.9059 35.4362 33.2772C35.0649 33.6485 34.5614 33.8574 34.0363 33.8581H31.6539V37.6231C31.654 37.6808 31.6426 37.738 31.6205 37.7913C31.5985 37.8446 31.5661 37.8931 31.5253 37.9339C31.4844 37.9747 31.436 38.0071 31.3826 38.0291C31.3293 38.0512 31.2722 38.0625 31.2144 38.0625C31.1373 38.0623 31.0616 38.042 30.9947 38.0037L23.8134 33.858H13.9632C13.4382 33.8572 12.9349 33.6482 12.5637 33.2769C12.1925 32.9056 11.9836 32.4023 11.9829 31.8772V17.8702C11.9836 17.3451 12.1924 16.8417 12.5636 16.4704C12.9348 16.099 13.4382 15.89 13.9632 15.8892H23.5608C23.5608 15.8861 23.5602 15.8822 23.5602 15.8788V13.8864C23.0804 13.7783 22.6573 13.497 22.3719 13.0964C22.0864 12.6959 21.9587 12.2041 22.0131 11.7153C22.0675 11.2264 22.3002 10.7748 22.6668 10.4468C23.0333 10.1188 23.5079 9.93749 23.9998 9.93749C24.4916 9.93749 24.9662 10.1188 25.3328 10.4468C25.6993 10.7748 25.932 11.2264 25.9864 11.7153C26.0408 12.2041 25.9131 12.6959 25.6277 13.0964C25.3422 13.497 24.9191 13.7783 24.4393 13.8864V15.8788C24.4393 15.8822 24.4387 15.8861 24.4387 15.8892H34.0363C34.5615 15.8899 35.0649 16.0988 35.4362 16.4702C35.8075 16.8416 36.0164 17.345 36.0171 17.8702ZM29.2881 25.4694C28.8134 25.4694 28.3494 25.3287 27.9547 25.065C27.56 24.8012 27.2524 24.4264 27.0708 23.9879C26.8891 23.5493 26.8416 23.0668 26.9342 22.6012C27.0268 22.1357 27.2554 21.708 27.591 21.3724C27.9267 21.0367 28.3543 20.8082 28.8198 20.7156C29.2854 20.6229 29.768 20.6705 30.2065 20.8521C30.645 21.0338 31.0199 21.3414 31.2836 21.7361C31.5473 22.1307 31.6881 22.5948 31.6881 23.0694C31.6873 23.7057 31.4342 24.3157 30.9843 24.7656C30.5343 25.2156 29.9243 25.4687 29.2881 25.4694ZM29.2881 21.5483C29.5889 21.5484 29.8829 21.6376 30.133 21.8048C30.3831 21.9719 30.578 22.2095 30.6931 22.4874C30.8082 22.7653 30.8383 23.0711 30.7796 23.3662C30.7209 23.6612 30.5761 23.9322 30.3634 24.1449C30.1506 24.3576 29.8796 24.5024 29.5846 24.5611C29.2896 24.6198 28.9838 24.5897 28.7058 24.4746C28.4279 24.3595 28.1904 24.1645 28.0232 23.9144C27.8561 23.6643 27.7669 23.3703 27.7669 23.0694C27.7673 22.6661 27.9277 22.2795 28.2129 21.9943C28.4981 21.7092 28.8848 21.5488 29.2881 21.5483ZM18.7115 25.4694C18.2368 25.4694 17.7728 25.3287 17.3781 25.065C16.9834 24.8012 16.6758 24.4264 16.4942 23.9879C16.3125 23.5493 16.265 23.0668 16.3576 22.6012C16.4502 22.1357 16.6788 21.708 17.0144 21.3724C17.3501 21.0367 17.7777 20.8082 18.2433 20.7156C18.7088 20.6229 19.1914 20.6705 19.6299 20.8521C20.0685 21.0338 20.4433 21.3414 20.707 21.7361C20.9707 22.1307 21.1115 22.5948 21.1115 23.0694C21.1107 23.7057 20.8576 24.3157 20.4076 24.7656C19.9577 25.2155 19.3477 25.4686 18.7115 25.4694ZM18.7115 21.5483C19.0123 21.5483 19.3064 21.6375 19.5565 21.8047C19.8066 21.9718 20.0016 22.2093 20.1167 22.4873C20.2318 22.7652 20.2619 23.071 20.2033 23.366C20.1446 23.6611 19.9997 23.9321 19.787 24.1448C19.5743 24.3575 19.3033 24.5024 19.0083 24.5611C18.7132 24.6198 18.4074 24.5897 18.1295 24.4746C17.8515 24.3595 17.614 24.1645 17.4468 23.9144C17.2797 23.6643 17.1905 23.3703 17.1905 23.0694C17.1909 22.6662 17.3512 22.2795 17.6364 21.9943C17.9215 21.7092 18.3082 21.5488 18.7115 21.5483ZM26.7914 28.2233C26.8408 28.1935 26.8955 28.1736 26.9526 28.1649C27.0096 28.1562 27.0678 28.1589 27.1238 28.1726C27.1798 28.1864 27.2326 28.2111 27.2791 28.2453C27.3255 28.2795 27.3648 28.3225 27.3947 28.3718C27.4245 28.4212 27.4444 28.476 27.4531 28.533C27.4618 28.59 27.4592 28.6482 27.4454 28.7042C27.4316 28.7603 27.4069 28.813 27.3727 28.8595C27.3385 28.906 27.2956 28.9453 27.2462 28.9751C26.2674 29.5688 25.1445 29.8827 23.9998 29.8827C22.855 29.8827 21.7321 29.5688 20.7533 28.9751C20.7034 28.9456 20.6597 28.9065 20.625 28.86C20.5902 28.8135 20.565 28.7606 20.5508 28.7043C20.5366 28.648 20.5338 28.5894 20.5423 28.532C20.5509 28.4746 20.5708 28.4195 20.6008 28.3698C20.6308 28.3201 20.6704 28.2769 20.7173 28.2426C20.7641 28.2083 20.8173 28.1836 20.8737 28.17C20.9301 28.1564 20.9887 28.1541 21.046 28.1632C21.1033 28.1724 21.1583 28.1928 21.2077 28.2233C22.0494 28.7338 23.015 29.0037 23.9995 29.0037C24.9839 29.0038 25.9495 28.734 26.7914 28.2237V28.2233Z" fill="#7BBB29"/>
</g>
<defs>
<clipPath id="clip0_823_664059">
<rect width="48" height="48" rx="24" fill="white"/>
</clipPath>
</defs>
</svg>
